<?xml version="1.0" encoding="utf-8"?>
<!-- Generator: Adobe Illustrator 19.0.0, SVG Export Plug-In . SVG Version: 6.00 Build 0)  -->
<svg version="1.1" id="Layer_1" xmlns="http://www.w3.org/2000/svg" xmlns:xlink="http://www.w3.org/1999/xlink" x="0px" y="0px"
	 viewBox="0 0 500 500" style="enable-background:new 0 0 500 500;" xml:space="preserve">
<style type="text/css">
	.st0{clip-path:url(#XMLID_49_);fill:#FF0100;}
	.st1{clip-path:url(#XMLID_49_);fill:#022EB8;}
</style>
<g id="XMLID_1_">
	<g id="XMLID_2_">
		<defs>
			<rect id="XMLID_3_" x="67.5" y="201.2" width="365" height="97.6"/>
		</defs>
		<clipPath id="XMLID_49_">
			<use xlink:href="#XMLID_3_"  style="overflow:visible;"/>
		</clipPath>
		<path id="XMLID_4_" class="st0" d="M232.9,228.5c-1.6,0.3-3.6,0.5-5,1.2c-0.7,0-1.6,0.7-1.4,1.7c2.8,3.8,7.1,6.2,11.4,7.6
			c0-3.8,0.5-7.3,0.5-11.1C237.6,227.7,235.9,227.9,232.9,228.5 M252.3,245.5c-3,0-6-0.4-8.9-1.1c-0.2,1,0,2.4-1.2,2.8
			c-0.5,0-1.1,0.1-1.6,0.1c-0.3,0-0.6,0-1-0.1c-1.2-1.2-1.2-3.1-1.4-4.7c-4.3-2.1-11-6.7-13-11.1c0-0.1-0.1-0.6-0.1-0.7
			c0-2.4,4.2-4.6,6.2-5.2c0.9-0.3,6.5-2,7.1-1.9c0.4-3.3,0.2-7.3,1.9-10.2c1.6,0.5,2.5,2.3,2.6,3.8c0.1,1.9,0.1,3.8,0.2,5.7l0.5,0.3
			c0.8,0,1.6,0,2.4,0c4.1,0,14.3,1.3,14.3,6.8c0,1.9-1.9,3.2-3.4,4.1c-2.2,0.5-2-0.2-2.9-0.5l0-0.2c0-1,2.6-1.6,2.4-3.1
			c-2.7-2-9.2-2.7-12.5-2.7c-0.3,0-0.5,0.1-0.8,0.3c0,4.2,0,8.5,0.2,12.8c2.3,0.5,4.7,0.7,7,0.7c6.9,0,17.5-2.7,17.5-11.3
			c0-1.2-0.2-2.5-0.6-3.6c-3.7-9.6-13.5-14.7-22.5-18.2c-5.5-2.2-11.4-3.4-17.4-3.4c-1.5,0-7.6,0.2-8.4,1.3c0.6,0.4,2.6,0.2,2.6,1.1
			c0,0.5-0.9,0.6-1.2,0.8c-1.4-0.2-3,0.3-3.8-1.2c0-1.8,1.1-3.2,2.8-3.8c3.6-1.2,7.6-1.7,11.4-1.7c11.3,0,22,4.7,31,11.2
			c5.1,3.7,11.4,11,11.4,17.7C273.3,240.9,261.5,245.5,252.3,245.5"/>
		<path id="XMLID_7_" class="st0" d="M286.3,209.8c-3.6,0-7,3.8-8.7,6.7c0.5,0,1,0.1,1.4,0.1l4.2-0.8c2-0.7,4.6-2.5,4.6-4.8
			C287.8,210,287,209.8,286.3,209.8 M280.4,242c-0.5,0.5-1.3,0.8-2.1,0.8c-2.5,0-2.4-2.7-2.4-4.6c0-3.2-0.1-10.9,0.7-13.8
			c0.1-0.5,0.6-1.2,1.2-1.2c1.4,0,1.7,1.7,1.9,2.8c0.6,4.2,0.8,8.7,0.8,12.9C280.5,240.1,280.5,241,280.4,242 M273.8,214
			c0,0.3,0,0.6,0.3,0.8c1.5-2,3.2-3.7,5-5.5c-1.4,0-2.9,0.9-3.8,1.9C274.6,211.8,273.8,213.1,273.8,214 M282.5,205.4
			c2.1,0,3.1,0.3,4.3,2.1c0.1,0,0.3,0,0.4,0c0.7,0,1.3,0.5,2,0.7c0.8,0.6,1.1,1.4,1.1,2.5c0.9,5.2-4.5,7.7-5.5,8.1
			c-1.9,0.7-3.8,1.4-5.7,1.4c-1.2,0-2.4-0.2-3.6-0.5c-0.4,0.4-0.7,1.6-1.4,1.6c-0.8,0-1.1-0.8-1.5-1.4v-2.1
			c-0.9-0.9-1.4-2.2-1.4-3.5c0-1.6,1-3.5,2.1-4.6C276.1,206.8,278.5,205.4,282.5,205.4"/>
		<path id="XMLID_12_" class="st0" d="M298.2,227.1c-4,0.5-8.5,0.3-12.3,1.9c0,0.5,1,0.5,1.4,0.7c4.5,1.4,10.9-0.7,14,4
			c0.7,1.9,0.5,4.7-0.5,6.2c-2.6,2.9-6.8,3.3-10.6,2.9c-2.9-0.7-5.7-2.1-6.7-5c-0.2-1.2,0.2-2.1,1-2.8c2.1-1.6,5-1.3,7.8-1
			c1.5,0.1,3.3,1,4.1,1.4c0,0.7,0,1.7-3.3,2.1c-2.1,0.3-5.2-2.6-7.6-1.2c-0.5,0.2-0.5,1-0.3,1.2c1.7,1.9,4.7,1,6.9,1
			c2.4-0.5,5.5-1,6.7-2.6c-0.5-2.1-2.6-2.1-4.1-2.6c-3.6-0.7-7.3-0.5-10.9-1.2c-0.7-0.3-1.2-1.2-1.4-1.9c0-1.9,0.7-3.6,2.4-4.5
			c4.7-2.6,12.1-3.3,17.3-1.2c0.5,0.5,0,1,0,1.4C301,226.8,299.6,226.9,298.2,227.1"/>
		<path id="XMLID_13_" class="st0" d="M317,241.3c-0.5,0.5-1.4,0.6-1.9,0.2c-3.5-2.9-4.7-7.1-7.1-10.7l-0.2,0.7l-0.7,9.9
			c-0.3,0.7-0.7,1.4-1.2,1.4c-1,0-1.7-0.7-2.1-1.4c-1-2.1-0.2-5-0.2-7.3c0.5-3.1,0.9-5.9,2.4-8.5c0.2-0.7,0.9-1.2,1.6-0.7
			c3.6,3.3,5.5,7.6,8.1,11.1c0.7,0,0.2-0.7,0.5-0.9c0-5-1.9-9-2.6-13.5c0-0.5-0.2-1.2,0.2-1.4c1.4,0.2,2.1,1.6,2.9,2.4
			c2.8,4,4,9,3.6,14.2C319.6,238.4,318.9,240.6,317,241.3"/>
		<path id="XMLID_14_" class="st0" d="M333.5,227.3h-3.8l-1,2.8h0.2c1.9,0,4.1-0.2,5.7,0.5c0.5,0.5,0.2,1.4,0.2,2.1
			c-0.9,1-2.6,0.7-4,0.7c-1.2,0.2-3.4-0.5-3.8,1.2l-0.7,2.8v0.3c2.9-0.3,5.7-1.5,8.5-1c0.5,0.7,1,1.6,0.7,2.4
			c-3.1,2.4-6.7,4.7-10.9,4c-1.7-0.7-2.9-2.6-3.1-4.5c-0.3-2.6,2.4-4.5,1.2-7.1c-0.2-0.7,0.7-0.7,1-0.9c1.2,0,1.2-1.5,1.6-2.1
			l0.5-1.4c-1.4-0.5-3.1-0.7-3.6-2.6c0-0.5,1-0.2,1.2-0.5c4-0.5,8.1-1.4,12.1-1.2c1.4,0.7,2.8,1.9,2.6,3.6
			C337,227.3,335.2,227.1,333.5,227.3"/>
		<path id="XMLID_15_" class="st0" d="M353.8,229c-1.6,1.5-2.8,3.1-4,4.5c-1.2,1.9-2.4,3.8-3.3,5.5c2.1,0,4.1-0.9,5.7-2.4
			c1.9-1.6,2.8-4.1,2.6-6.7C354.5,229.7,354.5,228.7,353.8,229 M346.7,243.9l-2.8,0.2c-1.7,5.2-3.3,10.7-4.3,16.4
			c-1.4,0.2-3.1-1.4-3.8-2.8c-0.5-1.2,0-2.6,0-3.8c1-4.5,1.9-9.2,3.8-13.3c-0.2-1-0.7-1.6-1-2.6c-0.7-5.2,1.9-9.5,5.2-13.3
			c0.5-0.5,1.2-1.7,1.9-1.4c0.5,4.2-3.8,7.1-4.2,11.3c0,0.7,0,1.2,0.2,1.7c1.4-1.7,2.8-3.8,4.2-5.5c2.1-2.4,4.3-4.3,6.9-5.7
			c1-0.2,2,0,2.6,0.7c1.7,2.1,2.6,4.7,1.9,7.6C356.1,238.4,351.4,243,346.7,243.9"/>
		<path id="XMLID_18_" class="st0" d="M132.6,245.2c1.1-2.4,1.1-5.1-0.2-7.3c-2.3-4.1-8.2-5.1-13-2.3c-4.9,2.8-6.9,8.4-4.5,12.4
			c2,3.4,6.4,4.7,10.6,3.3l0,0c-1.3,2.2-2,4.7-2,7.4c0,8.1,6.6,14.7,14.7,14.7c8.1,0,14.7-6.6,14.7-14.7c0-2.7-0.7-5.2-2-7.4l0,0
			c4.3,1.4,8.7,0.1,10.7-3.3c2.3-4.1,0.3-9.6-4.5-12.4c-4.9-2.8-10.7-1.8-13,2.3c-1.3,2.2-1.3,4.9-0.2,7.3v0
			c-1.7-0.7-3.6-1.1-5.6-1.1C136.2,244,134.3,244.4,132.6,245.2L132.6,245.2z"/>
		<path id="XMLID_19_" class="st1" d="M206.3,262.4c-4.8-3-9.8-4.3-14.9-4.3c-5,0-15.5,2.7-32.4,12.5c-13.2,7.6-27.9,11.3-33.7,11.3
			c-11.9,0-20.4-6.2-24-10.3c6.5,2.7,8.7,2.9,12,2.9c3.4,0,7.6-1.3,12.6-3.4c5.1,5.4,14.2,6.4,20.3,3.1c5.9-3.2,9.3-9.2,9.2-15.7
			c8.1-3.9,15.9-7.6,29.2-7.6C195.5,250.7,202.8,257.8,206.3,262.4"/>
		<path id="XMLID_20_" class="st1" d="M116.7,253.2c-9.3,4.1-15.4,6-20.3,6c-3.3,0-5.6-0.1-12-2.9c3.6,4.2,12,10.3,24,10.3
			c2.8,0,7.5-1,13.4-2.7c-0.8-2.3-1.1-6.1-0.3-9.5C120,254.3,118,253.9,116.7,253.2"/>
		<path id="XMLID_21_" class="st1" d="M161.6,235.9c1.5-0.3,4.7-0.4,6.2-0.4c10.9,0,18.1,7.1,21.7,11.6c-4.8-3-9.8-4.3-14.9-4.3
			c-2,0-5.5,0.8-9.3,1.9C165.2,241.4,163.6,238,161.6,235.9"/>
		<path id="XMLID_22_" class="st1" d="M172.5,232.1c-4.8-3-9.8-4.3-14.9-4.3c-4.1,0-11.7,1.7-23.7,7.7c-3.4-4.4-10.3-5.4-16-2
			c-5.1,3.1-7.3,8.7-6.3,13.2c-8.2,3.2-16.4,4.8-20.2,4.8c-11.9,0-20.4-6.2-24-10.3c6.5,2.7,8.7,2.9,12,2.9
			c7.3,0,18.2-4.9,36.7-13.6c10.5-5,18.3-10,34.6-10C161.7,220.5,169,227.6,172.5,232.1"/>
		<rect id="XMLID_23_" x="297" y="266" class="st1" width="4.5" height="31.9"/>
		<polygon id="XMLID_24_" class="st1" points="333.7,294.6 333.7,289.6 340.2,289.6 340.2,285.5 333.7,285.5 333.7,270 340.2,270 
			340.2,266 329.2,266 329.2,298 340.7,298 340.7,294.6 		"/>
		<polygon id="XMLID_25_" class="st1" points="425.5,294.6 425.5,289.6 432,289.6 432,285.5 425.5,285.5 425.5,270 432,270 432,266 
			421,266 421,298 432.5,298 432.5,294.6 		"/>
		<rect id="XMLID_26_" x="384.5" y="266" class="st1" width="4.5" height="32"/>
		<polygon id="XMLID_27_" class="st1" points="368.3,294.1 368.3,256.5 363.7,256.5 363.7,298 377.2,298 377.2,294.1 		"/>
		<path id="XMLID_28_" class="st1" d="M254.2,289.6l-0.6-19.3c3.5,2,6.3,4.4,6.3,9.3C259.8,285.6,256.3,288.1,254.2,289.6
			 M263.8,279.4c0-7.8-8.1-13.5-14-13.5c0,0,0,0.1,0.1,0.2v31.7h4.5l-0.2-6.8l0,0l4.5,6.8h4.2c0,0-3-4.7-4.5-7
			C259.7,289.4,263.8,287.2,263.8,279.4"/>
		<path id="XMLID_31_" class="st1" d="M242.4,255.4c-9.3,2.8-17.1,11.7-17.1,21.5c0,8.8,6.8,18.9,17.1,21.3v-3.9
			c-5.4-2.3-13.3-7.8-13.3-17.4c0-9.8,8.9-15.4,13.3-17.4V255.4z"/>
		<path id="XMLID_32_" class="st1" d="M286.9,290.7c0,5.1-3.3,7.6-7.6,7.6c-4.4,0-7.7-2.6-7.7-7.6V266h4.5v25.6
			c0,1.7,1.4,3.1,3.1,3.1c1.7,0,3.1-1.4,3.1-3.1V266h4.5V290.7z"/>
		<path id="XMLID_33_" class="st1" d="M317.8,265.2c-3.7,1.7-8.8,4.3-8.8,9.4c0,6.7,7.9,10.1,7.9,15.3c0,2.2-3.1,3.9-7.1,5.6
			c0.6,1.2,1.8,3.4,1.8,3.4c4.7-2.3,9.2-4.4,9.2-8.6c0-7.9-7.8-10.7-7.8-15.5c0-3.8,3.7-5.2,6.3-6.3
			C319.1,267.8,317.8,265.2,317.8,265.2"/>
		<polygon id="XMLID_34_" class="st1" points="408.7,266 408.7,277.8 397.5,264.8 397.5,298 402,298 402,276.5 408.7,283.9 
			408.7,298 413.2,298 413.2,266 		"/>
	</g>
</g>
</svg>
